<mxfile host="Electron" agent="Mozilla/5.0 (Windows NT 10.0; Win64; x64) AppleWebKit/537.36 (KHTML, like Gecko) draw.io/25.0.2 Chrome/128.0.6613.186 Electron/32.2.5 Safari/537.36" version="25.0.2">
  <diagram name="PÃ¡gina-1" id="XoVfdVzmXT0FCT3dWPdM">
    <mxGraphModel dx="3827" dy="1774" grid="1" gridSize="10" guides="1" tooltips="1" connect="1" arrows="1" fold="1" page="1" pageScale="1" pageWidth="827" pageHeight="1169" background="none" math="0" shadow="1">
      <root>
        <mxCell id="0" />
        <mxCell id="1" parent="0" />
        <mxCell id="gqJFN9A-wY2o9Y6DUlTp-1" value="INICIO - modificar_datos" style="ellipse;whiteSpace=wrap;rounded=1;fillColor=#dae8fc;strokeColor=#6c8ebf;textShadow=1;strokeWidth=1;shadow=1;html=1;horizontal=1;fontSize=11;fontStyle=0;spacing=2;" parent="1" vertex="1">
          <mxGeometry x="-482.2" y="40" width="140" height="80" as="geometry" />
        </mxCell>
        <mxCell id="cXWjLIOsoKRXoAWc8K2a-2" value="n_productos = 0" style="rhombus;whiteSpace=wrap;rounded=1;fillColor=#f8cecc;strokeColor=#b85450;textShadow=1;strokeWidth=1;shadow=1;html=1;horizontal=1;fontSize=11;fontStyle=0;spacing=2;" parent="1" vertex="1">
          <mxGeometry x="-480.8" y="140" width="140" height="100" as="geometry" />
        </mxCell>
        <mxCell id="cXWjLIOsoKRXoAWc8K2a-3" value="" style="edgeStyle=orthogonalEdgeStyle;rounded=1;orthogonalLoop=1;jettySize=auto;entryX=0.5;entryY=0.036;entryDx=0;entryDy=0;entryPerimeter=0;fillColor=#dae8fc;strokeColor=#6c8ebf;textShadow=1;strokeWidth=1;shadow=1;html=1;horizontal=1;fontSize=11;fontStyle=0;spacing=2;exitX=0.5;exitY=1;exitDx=0;exitDy=0;" parent="1" target="cXWjLIOsoKRXoAWc8K2a-2" edge="1">
          <mxGeometry relative="1" as="geometry">
            <mxPoint x="-410.8" y="120" as="sourcePoint" />
          </mxGeometry>
        </mxCell>
        <mxCell id="cXWjLIOsoKRXoAWc8K2a-4" value="" style="edgeStyle=orthogonalEdgeStyle;rounded=1;orthogonalLoop=1;jettySize=auto;fillColor=#dae8fc;strokeColor=#6c8ebf;textShadow=1;strokeWidth=1;shadow=1;html=1;horizontal=1;fontSize=11;fontStyle=0;spacing=2;exitX=1;exitY=0.5;exitDx=0;exitDy=0;" parent="1" edge="1">
          <mxGeometry x="0.3875" y="110" relative="1" as="geometry">
            <mxPoint x="-173.60000000000002" y="250" as="targetPoint" />
            <mxPoint x="-343.8" y="190" as="sourcePoint" />
            <Array as="points">
              <mxPoint x="-173.60000000000002" y="190" />
            </Array>
            <mxPoint as="offset" />
          </mxGeometry>
        </mxCell>
        <mxCell id="JG8EjwA68Vt5j2I3WxTG-10" value="NO" style="edgeLabel;html=1;align=center;verticalAlign=middle;resizable=0;points=[];" parent="cXWjLIOsoKRXoAWc8K2a-4" vertex="1" connectable="0">
          <mxGeometry x="-0.1035" y="-2" relative="1" as="geometry">
            <mxPoint as="offset" />
          </mxGeometry>
        </mxCell>
        <mxCell id="cXWjLIOsoKRXoAWc8K2a-5" value="" style="edgeStyle=orthogonalEdgeStyle;rounded=1;orthogonalLoop=1;jettySize=auto;fillColor=#dae8fc;strokeColor=#6c8ebf;textShadow=1;strokeWidth=1;shadow=1;html=1;horizontal=1;fontSize=11;fontStyle=0;spacing=2;exitX=0.021;exitY=0.505;exitDx=0;exitDy=0;exitPerimeter=0;" parent="1" edge="1">
          <mxGeometry x="0.3875" y="110" relative="1" as="geometry">
            <mxPoint x="-653.6" y="250" as="targetPoint" />
            <mxPoint x="-476.86000000000007" y="190.5" as="sourcePoint" />
            <mxPoint as="offset" />
            <Array as="points">
              <mxPoint x="-653.6" y="190" />
              <mxPoint x="-653.6" y="250" />
            </Array>
          </mxGeometry>
        </mxCell>
        <mxCell id="JG8EjwA68Vt5j2I3WxTG-3" value="SI" style="edgeLabel;html=1;align=center;verticalAlign=middle;resizable=0;points=[];" parent="cXWjLIOsoKRXoAWc8K2a-5" vertex="1" connectable="0">
          <mxGeometry x="-0.2624" relative="1" as="geometry">
            <mxPoint as="offset" />
          </mxGeometry>
        </mxCell>
        <mxCell id="cXWjLIOsoKRXoAWc8K2a-6" value="Escribir(&quot;************* Inventario *************&quot;);" style="rounded=1;whiteSpace=wrap;fillColor=#fff2cc;strokeColor=#d6b656;textShadow=1;strokeWidth=1;shadow=1;html=1;horizontal=1;fontSize=11;fontStyle=0;spacing=2;" parent="1" vertex="1">
          <mxGeometry x="-335" y="250" width="322.8" height="40" as="geometry" />
        </mxCell>
        <mxCell id="JG8EjwA68Vt5j2I3WxTG-9" value="Escribir(&quot;El inventario esta vacio.&quot;);" style="rounded=1;whiteSpace=wrap;fillColor=#fff2cc;strokeColor=#d6b656;textShadow=1;strokeWidth=1;shadow=1;html=1;horizontal=1;fontSize=11;fontStyle=0;spacing=2;" parent="1" vertex="1">
          <mxGeometry x="-815" y="250" width="334.4" height="40" as="geometry" />
        </mxCell>
        <mxCell id="EFgC_INHWZhmzaaOTWJH-40" style="edgeStyle=orthogonalEdgeStyle;rounded=0;orthogonalLoop=1;jettySize=auto;html=1;fillColor=#dae8fc;strokeColor=#6c8ebf;exitX=1;exitY=0.5;exitDx=0;exitDy=0;" parent="1" edge="1" source="TULhlXBnwdBzGopeD72t-1">
          <mxGeometry relative="1" as="geometry">
            <mxPoint x="-405" y="570" as="targetPoint" />
            <Array as="points">
              <mxPoint x="-45" y="360" />
              <mxPoint x="-45" y="530" />
              <mxPoint x="-405" y="530" />
            </Array>
            <mxPoint x="-97.88000000000011" y="360.02" as="sourcePoint" />
          </mxGeometry>
        </mxCell>
        <mxCell id="E3TbUHFSP4C36HeIqUeX-2" value="NO" style="edgeLabel;html=1;align=center;verticalAlign=middle;resizable=0;points=[];" vertex="1" connectable="0" parent="EFgC_INHWZhmzaaOTWJH-40">
          <mxGeometry x="-0.9287" relative="1" as="geometry">
            <mxPoint as="offset" />
          </mxGeometry>
        </mxCell>
        <mxCell id="EFgC_INHWZhmzaaOTWJH-17" value="mostrar_producto(i, galleta);" style="rounded=1;whiteSpace=wrap;fillColor=#fff2cc;strokeColor=#d6b656;textShadow=1;strokeWidth=1;shadow=1;html=1;horizontal=1;fontSize=11;fontStyle=0;spacing=2;" parent="1" vertex="1">
          <mxGeometry x="-252.20000000000005" y="440" width="157.2" height="40" as="geometry" />
        </mxCell>
        <mxCell id="EFgC_INHWZhmzaaOTWJH-18" value="" style="edgeStyle=orthogonalEdgeStyle;rounded=1;orthogonalLoop=1;jettySize=auto;fillColor=#dae8fc;strokeColor=#6c8ebf;textShadow=1;strokeWidth=1;shadow=1;html=1;horizontal=1;fontSize=11;fontStyle=0;spacing=2;exitX=0.5;exitY=1;exitDx=0;exitDy=0;" parent="1" edge="1">
          <mxGeometry relative="1" as="geometry">
            <mxPoint x="-173.87999999999988" y="410" as="sourcePoint" />
            <mxPoint x="-173.67000000000007" y="440" as="targetPoint" />
          </mxGeometry>
        </mxCell>
        <mxCell id="EFgC_INHWZhmzaaOTWJH-41" value="SI" style="edgeLabel;html=1;align=center;verticalAlign=middle;resizable=0;points=[];" parent="EFgC_INHWZhmzaaOTWJH-18" vertex="1" connectable="0">
          <mxGeometry x="-0.2438" y="-1" relative="1" as="geometry">
            <mxPoint as="offset" />
          </mxGeometry>
        </mxCell>
        <mxCell id="EFgC_INHWZhmzaaOTWJH-38" value="" style="edgeStyle=orthogonalEdgeStyle;rounded=1;orthogonalLoop=1;jettySize=auto;fillColor=#dae8fc;strokeColor=#6c8ebf;textShadow=1;strokeWidth=1;shadow=1;html=1;horizontal=1;fontSize=11;fontStyle=0;spacing=2;exitX=0.5;exitY=1;exitDx=0;exitDy=0;" parent="1" source="EFgC_INHWZhmzaaOTWJH-17" edge="1">
          <mxGeometry relative="1" as="geometry">
            <mxPoint x="-345" y="490" as="sourcePoint" />
            <mxPoint x="-175.03999999999996" y="300" as="targetPoint" />
            <Array as="points">
              <mxPoint x="-174" y="500" />
              <mxPoint x="-275" y="500" />
              <mxPoint x="-275" y="300" />
            </Array>
          </mxGeometry>
        </mxCell>
        <mxCell id="EFgC_INHWZhmzaaOTWJH-55" value="INICIO - modificar_datos" style="ellipse;whiteSpace=wrap;rounded=1;fillColor=#dae8fc;strokeColor=#6c8ebf;textShadow=1;strokeWidth=1;shadow=1;html=1;horizontal=1;fontSize=11;fontStyle=0;spacing=2;" parent="1" vertex="1">
          <mxGeometry x="-475" y="570" width="140" height="80" as="geometry" />
        </mxCell>
        <mxCell id="TULhlXBnwdBzGopeD72t-1" value="i &amp;lt; n_productos" style="rhombus;whiteSpace=wrap;rounded=1;fillColor=#f8cecc;strokeColor=#b85450;textShadow=1;strokeWidth=1;shadow=1;html=1;horizontal=1;fontSize=11;fontStyle=0;spacing=2;" parent="1" vertex="1">
          <mxGeometry x="-243.5999999999999" y="310" width="140" height="100" as="geometry" />
        </mxCell>
        <mxCell id="TULhlXBnwdBzGopeD72t-2" value="" style="endArrow=none;html=1;rounded=0;edgeStyle=orthogonalEdgeStyle;fillColor=#dae8fc;strokeColor=#6c8ebf;" parent="1" edge="1">
          <mxGeometry width="50" height="50" relative="1" as="geometry">
            <mxPoint x="-405" y="530" as="sourcePoint" />
            <mxPoint x="-655" y="290" as="targetPoint" />
            <Array as="points">
              <mxPoint x="-654" y="530" />
              <mxPoint x="-654" y="290" />
            </Array>
          </mxGeometry>
        </mxCell>
        <mxCell id="E3TbUHFSP4C36HeIqUeX-1" value="" style="edgeStyle=orthogonalEdgeStyle;rounded=1;orthogonalLoop=1;jettySize=auto;entryX=0.5;entryY=0.036;entryDx=0;entryDy=0;entryPerimeter=0;fillColor=#dae8fc;strokeColor=#6c8ebf;textShadow=1;strokeWidth=1;shadow=1;html=1;horizontal=1;fontSize=11;fontStyle=0;spacing=2;exitX=0.5;exitY=1;exitDx=0;exitDy=0;" edge="1" parent="1">
          <mxGeometry relative="1" as="geometry">
            <mxPoint x="-173.93000000000006" y="290" as="sourcePoint" />
            <mxPoint x="-174.13" y="314" as="targetPoint" />
          </mxGeometry>
        </mxCell>
      </root>
    </mxGraphModel>
  </diagram>
</mxfile>
